<svg xmlns="http://www.w3.org/2000/svg" xmlns:xlink="http://www.w3.org/1999/xlink" version="1.1" baseProfile="tiny" width="443.978" height="173.991" xml:space="preserve"><rect id="backgroundrect" width="100%" height="100%" x="0" y="0" fill="none" stroke="none"/>

<g class="currentLayer" style=""><title>Layer 1</title><path fill="#ff0000" d="M170.25,17.939v62.5l-61.399,67.75H91.294l-20.063-22.141l-20.148,22.141H33.872l-21.276-23.475V96.09  l29.922,32.919L70.021,96.09l30.009,33.112l38.313-43.514V17.939H170.25z M44.508,17.939v97.711L12.595,80.439v-62.5H44.508z   M101.934,17.939v97.711L70.021,80.439v-62.5H101.934z M276.923,17.219v21.942h-71.26l-28.366,33.013V41.877l21.273-24.659H276.923z   M227.886,64.965h49.037v20.332l-31.824,37.042V86.907h-17.213V64.965z M389.929,156.772l-191.358-0.012L177.297,132.1V90.832  l31.912-37.141v81.127h39.432 M248.641,134.818L354.637,17.493l33.648,9.758l19.573-9.679l-8.819,14.695l16.075-8.005l-8.85,20.183  l25.118,71.364l-17.239,21.887l-15.313-12.014l-4.643-16.514L375.081,97.48l14.84,59.259" id="svg_1" class="selected" fill-opacity="1"/></g></svg>